<svg width="32" height="32" viewBox="0 0 32 32" fill="none" xmlns="http://www.w3.org/2000/svg">
<path fill-rule="evenodd" clip-rule="evenodd" d="M25.9196 31.8562C24.057 31.9644 22.6833 30.9976 21.408 29.813C19.8932 28.4058 18.4619 26.9157 17.0307 25.4257C16.795 25.1804 16.5594 24.935 16.3233 24.69C16.0988 24.457 15.9816 24.4448 15.7453 24.6821C15.2328 25.1968 14.7114 25.7027 14.19 26.2086C13.6811 26.7024 13.1723 27.1961 12.6716 27.698C12.1689 28.2021 11.6935 28.7339 11.2185 29.2652L11.2172 29.2667L11.2158 29.2682L11.2145 29.2697C11.1565 29.3346 11.0984 29.3995 11.0404 29.4644C9.70713 30.9536 8.13211 31.9276 6.05079 31.8663C5.65367 31.8547 5.26269 31.8257 4.89263 31.681C2.57134 30.7729 0.858419 29.2543 0.0973781 26.8168C-0.107883 26.1593 0.051611 25.4952 0.206719 24.8493C0.218645 24.7997 0.230545 24.7501 0.242251 24.7007C0.479724 23.6968 0.987527 22.8475 1.71222 22.0926C2.12995 21.6575 2.54567 21.2204 2.96133 20.7833L2.96174 20.7828C4.43701 19.2316 5.91213 17.6804 7.47794 16.2182C7.68621 16.0237 7.5961 15.9402 7.43778 15.7977C7.32122 15.6928 7.20452 15.588 7.08782 15.4832L7.08628 15.4818L7.08474 15.4804C6.33378 14.8061 5.58285 14.1317 4.86541 13.4205C3.46381 12.0308 2.17423 10.5461 0.993999 8.96508C0.478728 8.2749 0.149653 7.5049 0.0402927 6.65408C-0.0531364 5.92673 0.216861 5.26459 0.531168 4.63432C1.35527 2.98114 2.44621 1.5563 4.10105 0.643086C5.75009 -0.266976 8.08797 -0.292034 9.70912 1.09347C11.576 2.68923 13.2812 4.4385 14.9473 6.2329C15.0168 6.30779 15.0871 6.38214 15.1574 6.45649L15.1576 6.45664C15.3776 6.6893 15.5978 6.92215 15.7948 7.173C15.9838 7.41363 16.1096 7.36368 16.295 7.18196C16.8181 6.6694 17.3446 6.16025 17.8712 5.65116L17.8716 5.65071C18.2656 5.26975 18.6596 4.88879 19.0522 4.50637C19.3856 4.18166 19.7156 3.8531 20.0455 3.52466C20.6933 2.87976 21.341 2.2349 22.0149 1.61853C23.8061 -0.0200434 27.1019 -0.463791 29.2892 1.44644C30.1988 2.24067 31.0533 3.09664 31.5166 4.21347C32.3263 6.1647 32.1268 7.97603 30.6328 9.55735C30.2493 9.96325 29.8667 10.37 29.4841 10.7768C27.9192 12.4405 26.3544 14.1041 24.728 15.7084C24.4862 15.947 24.5444 16.062 24.7486 16.2716C25.1848 16.7199 25.6244 17.1651 26.0639 17.6102C27.3347 18.8973 28.6056 20.1845 29.7977 21.5465C30.2698 22.0858 30.7438 22.6281 31.165 23.2068C32.1565 24.5691 32.2181 26.0835 31.5971 27.5734C30.722 29.673 29.3161 31.2712 26.9693 31.8008C26.7445 31.8512 26.5181 31.8502 26.2924 31.8492C26.1679 31.8487 26.0435 31.8481 25.9196 31.8562ZM3.08047 7.85505C3.29421 7.89255 3.31794 7.71034 3.3191 7.57593C3.31081 7.26096 3.03815 6.92076 2.82673 6.94864C2.6563 6.97088 2.52039 7.07028 2.56221 7.2588C2.62527 7.54323 2.76566 7.79962 3.08047 7.85505ZM5.36492 7.46972C5.56091 7.47005 5.58928 7.29879 5.59957 7.12156C5.55294 6.87628 5.41022 6.70204 5.13707 6.68827C4.93063 6.67798 4.81878 6.82135 4.85396 7.01037C4.90375 7.27755 5.07451 7.46939 5.36492 7.46972ZM22.9444 24.925C22.9829 25.159 23.0295 25.429 23.3493 25.424C23.5408 25.421 23.5615 25.2742 23.5832 25.1198C23.5877 25.0878 23.5922 25.0554 23.5984 25.0239C23.5468 24.8069 23.4447 24.6047 23.1754 24.5964C22.9736 24.5901 22.9178 24.7641 22.9444 24.925ZM25.5668 20.5287C25.7786 20.5264 25.7851 20.3543 25.7909 20.1711C25.7726 19.9738 25.7016 19.7519 25.4615 19.7313C25.2666 19.7146 25.1238 19.8775 25.1526 20.0909C25.1838 20.3224 25.2856 20.5319 25.5668 20.5287ZM9.12233 18.1625C8.86428 18.162 8.79674 18.3317 8.79674 18.5519C8.79491 18.7551 8.85532 18.9235 9.08814 18.9311C9.3525 18.9399 9.40079 18.7436 9.40776 18.535C9.4144 18.3374 9.37092 18.163 9.12233 18.1625ZM11.2722 20.9932C11.2427 21.1648 11.3308 21.3624 11.5228 21.356C11.7976 21.3466 11.8313 21.1061 11.858 20.9151L11.8602 20.8994C11.861 20.6895 11.8374 20.5179 11.6016 20.5339C11.3437 20.5514 11.3097 20.7622 11.2802 20.9449C11.2793 20.9506 11.2784 20.9562 11.2774 20.9618C11.2757 20.9724 11.274 20.9829 11.2722 20.9932ZM25.8385 22.6198C25.848 22.3932 25.7313 22.2194 25.4796 22.1392C25.3398 22.1895 25.2008 22.2625 25.1986 22.4461C25.1954 22.7026 25.3242 22.8752 25.5841 22.9194C25.8197 22.9594 25.8329 22.7543 25.8385 22.6198ZM9.39598 26.0902C9.63777 26.1145 9.73601 25.9461 9.75327 25.7256C9.76671 25.5243 9.68141 25.3845 9.47663 25.3857C9.26172 25.387 9.09644 25.5054 9.06972 25.7304C9.04317 25.9549 9.20597 26.0711 9.39598 26.0902ZM4.33537 23.2373C4.32293 23.4433 4.42963 23.6008 4.64586 23.6014C4.87886 23.602 4.93556 23.4111 4.98842 23.2331L4.9885 23.2329C4.98907 23.231 4.98964 23.2291 4.9902 23.2271C4.99269 23.2188 4.99518 23.2104 4.99767 23.2022C4.96515 23.0223 4.88881 22.855 4.69498 22.8545C4.4688 22.8538 4.34832 23.0223 4.33537 23.2373ZM4.50696 25.7047C4.49186 25.9053 4.63591 25.9959 4.79571 26.0219C5.06936 26.0344 5.13276 25.8552 5.14487 25.6703C5.15682 25.4866 5.114 25.2679 4.87952 25.2732C4.63806 25.2787 4.52356 25.4828 4.50696 25.7047ZM18.1058 22.9838C18.1124 23.2305 18.241 23.432 18.4935 23.4524C18.6706 23.4668 18.6804 23.3242 18.6907 23.175C18.6928 23.1437 18.695 23.1121 18.6987 23.0817C18.6937 23.0601 18.689 23.0376 18.6843 23.0146C18.6508 22.8511 18.6129 22.6658 18.375 22.6442C18.1493 22.6237 18.1011 22.8113 18.1058 22.9838ZM25.8405 25.0586C25.8309 24.8513 25.7427 24.6759 25.5078 24.6612C25.3081 24.6623 25.177 24.7453 25.2061 24.9375C25.2381 25.1494 25.3252 25.3631 25.5831 25.3767C25.7799 25.3872 25.8478 25.2169 25.8405 25.0586ZM22.3377 7.65724C22.3509 7.86982 22.4546 8.0892 22.6971 8.10231C22.8891 8.11264 22.9322 7.95441 22.9719 7.80827C22.98 7.77837 22.988 7.74897 22.9971 7.72163C22.982 7.49013 22.8323 7.39039 22.6395 7.37977C22.4691 7.37031 22.3272 7.4883 22.3377 7.65724ZM22.8224 22.5307C22.835 22.7667 22.9682 22.9399 23.1951 22.9692C23.3781 22.9927 23.4194 22.8493 23.4576 22.717C23.466 22.6882 23.4741 22.66 23.4835 22.6341C23.4775 22.4139 23.3773 22.2664 23.1629 22.2617C22.9981 22.2581 22.8096 22.2916 22.8224 22.5307ZM5.4162 5.24302C5.60057 5.28451 5.6072 5.13515 5.60687 4.95642C5.58928 4.75164 5.52639 4.52861 5.22984 4.48447C5.03634 4.45559 4.9912 4.57723 4.99884 4.74019C5.01145 5.01335 5.15997 5.18527 5.4162 5.24302ZM5.42018 9.85307C5.58447 9.87498 5.6082 9.72413 5.60637 9.52565C5.56904 9.32784 5.4225 9.15111 5.16429 9.1068C5.01643 9.08141 4.9162 9.20836 4.94076 9.34145C4.98905 9.60265 5.13807 9.81524 5.42018 9.85307ZM6.78892 23.2484C6.74744 23.4381 6.84336 23.6076 7.0186 23.6315C7.23605 23.6611 7.27867 23.512 7.32092 23.3641C7.33606 23.3111 7.35115 23.2583 7.37422 23.2139C7.37284 23.192 7.37259 23.1694 7.37233 23.1467C7.37095 23.025 7.36958 22.9033 7.194 22.9033C6.97429 22.9033 6.83473 23.039 6.78892 23.2484ZM11.6089 23.4798C11.6111 23.6646 11.6506 23.9147 11.9081 23.8988C12.1033 23.8867 12.1062 23.7396 12.1091 23.5923C12.11 23.5463 12.1109 23.5002 12.1177 23.4582C12.1141 23.4305 12.1125 23.4003 12.1109 23.3695C12.1036 23.2325 12.0958 23.0838 11.902 23.086C11.6841 23.0881 11.6067 23.3024 11.6089 23.4798ZM25.6654 27.5699C25.8207 27.5724 25.8607 27.3993 25.8692 27.2452L25.8674 27.2387C25.8157 27.0544 25.7614 26.8608 25.5084 26.8696C25.3211 26.8761 25.2252 27.009 25.2464 27.1768C25.2754 27.407 25.4397 27.5663 25.6654 27.5699ZM23.1646 19.805C22.9576 19.7881 22.8936 19.9637 22.903 20.1545C22.9047 20.3764 23.0069 20.5656 23.2215 20.5861C23.4346 20.6064 23.432 20.4428 23.4297 20.2968C23.4293 20.2692 23.4289 20.2421 23.4299 20.2171C23.4382 20.0206 23.3808 19.8226 23.1646 19.805ZM25.2628 7.82452C25.2504 7.597 25.1209 7.43752 24.8775 7.38508C24.7343 7.41163 24.599 7.48017 24.6125 7.64562C24.6312 7.87496 24.7554 8.03428 25.0121 8.04274C25.1649 8.04772 25.2703 7.96275 25.2628 7.82452ZM11.9518 25.4058C11.6861 25.4139 11.6705 25.6326 11.6673 25.8386L11.6673 25.8391C11.6693 25.998 11.6717 26.1894 11.8816 26.1781C12.1295 26.1647 12.1569 25.9372 12.1799 25.7466L12.1809 25.7378C12.2008 25.5734 12.1497 25.3996 11.9518 25.4058ZM8.98874 21.0405C8.9826 21.206 9.07852 21.3291 9.25824 21.3439C9.46866 21.2889 9.57387 21.1565 9.56624 20.9482C9.55944 20.7574 9.46202 20.6082 9.26272 20.6294C9.04101 20.653 8.99538 20.8614 8.98874 21.0405ZM6.63376 21.0053C6.64638 21.1879 6.7642 21.3108 7.00151 21.3068C7.15136 21.2873 7.25889 21.1721 7.25773 21.0047C7.2564 20.7917 7.09942 20.6673 6.90409 20.6575C6.6867 20.6465 6.62198 20.8337 6.63376 21.0053ZM12.5158 9.68082C12.6582 9.69874 12.7375 9.58739 12.7481 9.44467C12.6857 9.19957 12.5349 9.05104 12.2863 9.01851C12.1351 8.99877 12.0867 9.09867 12.1014 9.22695C12.13 9.47454 12.2644 9.64912 12.5158 9.68082ZM25.1082 10.3612C25.2676 10.3632 25.3438 10.2338 25.3573 10.0617C25.295 9.89207 25.2019 9.72911 24.9857 9.73392C24.8159 9.73774 24.68 9.84411 24.6954 10.0253C24.7154 10.2583 24.8996 10.3586 25.1082 10.3612ZM6.95222 28.0006C6.92932 28.1519 6.97894 28.2905 7.15484 28.3032C7.39042 28.3205 7.43931 28.1597 7.48899 27.9963C7.50111 27.9564 7.51328 27.9164 7.52823 27.8787C7.51329 27.7394 7.47579 27.5832 7.3037 27.5968C7.07967 27.6147 6.98325 27.7971 6.95222 28.0006ZM21.0486 22.7552C21.0545 22.5498 20.948 22.4174 20.7243 22.3892C20.5572 22.4132 20.4345 22.493 20.4631 22.6854C20.491 22.8721 20.5779 23.0425 20.7895 23.0608C20.991 23.078 21.0441 22.9126 21.0486 22.7552ZM27.5294 24.8416C27.5461 25.0279 27.6093 25.2297 27.8231 25.2412C28.0288 25.2521 28.0505 25.0735 28.0683 24.9273C28.0696 24.9162 28.071 24.9053 28.0723 24.8947C28.0717 24.6653 27.9675 24.5195 27.7562 24.5146C27.5561 24.5102 27.5149 24.6806 27.5294 24.8416ZM7.3646 4.63449C7.37721 4.85835 7.5176 5.01849 7.71293 5.05517C7.87997 5.0866 7.88149 4.97249 7.88294 4.86292C7.88342 4.82674 7.8839 4.79106 7.89032 4.76127C7.88801 4.74211 7.88596 4.7227 7.88391 4.70324C7.8648 4.522 7.84531 4.33711 7.60373 4.32018C7.39547 4.30574 7.35497 4.46439 7.3646 4.63449ZM22.912 27.7C23.0766 27.6952 23.1304 27.5495 23.1465 27.3965C23.1402 27.3764 23.1341 27.3557 23.128 27.3349C23.0777 27.1642 23.0242 26.9823 22.8096 26.976C22.6614 26.9715 22.5604 27.128 22.5955 27.279C22.6016 27.305 22.6067 27.3326 22.612 27.3607C22.6426 27.5244 22.6767 27.7068 22.912 27.7ZM22.9918 10.0074C23.0023 9.80229 22.8649 9.7155 22.6875 9.68729C22.5092 9.70903 22.3693 9.79267 22.3672 9.96774C22.365 10.1578 22.5072 10.2786 22.6895 10.2884C22.8609 10.2975 22.9827 10.1846 22.9918 10.0074ZM7.80403 11.8785C7.80105 11.6437 7.67161 11.5263 7.46616 11.491C7.30071 11.494 7.20513 11.5662 7.20894 11.7173C7.21508 11.9651 7.37273 12.1038 7.59992 12.1319C7.75508 12.1511 7.80586 12.0214 7.80403 11.8785ZM27.6769 7.72976C27.6825 7.57725 27.5886 7.47121 27.4158 7.46208C27.2411 7.51436 27.1243 7.61758 27.1317 7.81672C27.1384 7.99246 27.2227 8.11526 27.4077 8.11642C27.6627 8.11804 27.6702 7.91305 27.6764 7.74247L27.6769 7.72976ZM20.8187 25.5085C20.9863 25.541 21.0205 25.4073 21.0333 25.268C21.0188 25.2249 21.0088 25.1777 20.9987 25.13C20.9658 24.9739 20.9319 24.8134 20.7347 24.7816C20.5696 24.7551 20.4993 24.9232 20.5137 25.0674C20.5333 25.2609 20.5884 25.4639 20.8187 25.5085ZM24.7774 3.33195C24.9502 3.34589 24.9998 3.20517 25.0119 3.05864C25.0018 3.03272 24.9926 3.00584 24.9834 2.97894C24.9324 2.83034 24.8812 2.68122 24.681 2.69106C24.528 2.69869 24.4268 2.81038 24.4399 2.9735C24.456 3.17563 24.5766 3.31569 24.7774 3.33195ZM10.0414 11.8835C10.2056 11.9057 10.2568 11.7889 10.2543 11.6433C10.2526 11.4195 10.1152 11.3091 9.91689 11.2826C9.78131 11.2645 9.64839 11.3302 9.66548 11.4897C9.68838 11.7032 9.82164 11.8539 10.0414 11.8835ZM6.87854 25.6663C6.85846 25.8296 6.95554 25.9275 7.13393 25.9385C7.30818 25.896 7.45156 25.8026 7.43646 25.6026C7.42584 25.4609 7.34286 25.311 7.17791 25.3157C6.97512 25.3213 6.89961 25.4956 6.87854 25.6663ZM22.6352 5.58968C22.7819 5.60495 22.8654 5.52032 22.8981 5.37727C22.8684 5.17796 22.7404 5.05467 22.5527 5.01517C22.3878 4.98049 22.2694 5.09184 22.2821 5.24501C22.2978 5.43701 22.4316 5.56861 22.6352 5.58968ZM22.4872 12.3682C22.5024 12.5637 22.6437 12.6133 22.799 12.6322C22.9741 12.5977 23.1048 12.5278 23.0864 12.3289C23.0682 12.131 22.9268 12.0833 22.7583 12.0808C22.5655 12.0778 22.4722 12.1765 22.4872 12.3682ZM9.64656 9.28636C9.66946 9.49114 9.74663 9.66157 9.97514 9.7238C10.1238 9.68779 10.1822 9.58307 10.1605 9.44484C10.1285 9.24288 10.0551 9.05834 9.8067 9.0517C9.64822 9.04739 9.63328 9.16886 9.64656 9.28636ZM9.51961 23.6461C9.69651 23.6487 9.7531 23.5186 9.75078 23.3588C9.74596 23.1525 9.62747 23.0438 9.43464 23.0392C9.26471 23.035 9.17145 23.15 9.19717 23.3147C9.22455 23.4901 9.31798 23.6431 9.51961 23.6461ZM7.61999 7.35637C7.79075 7.37015 7.87389 7.2729 7.88003 7.0653C7.83423 6.91844 7.75839 6.76311 7.5327 6.76062C7.39812 6.75929 7.30818 6.8353 7.32593 6.96291C7.35049 7.13832 7.38252 7.33729 7.61999 7.35637ZM9.9763 7.444C10.1489 7.46806 10.1905 7.35355 10.2003 7.21399C10.1944 7.18967 10.1892 7.16449 10.1839 7.13914C10.151 6.98082 10.1165 6.81555 9.91457 6.80626C9.76505 6.79929 9.64988 6.9342 9.66913 7.09069C9.69004 7.26046 9.776 7.41595 9.9763 7.444ZM27.6991 10.1368C27.7126 9.97786 27.6683 9.83249 27.4713 9.80611C27.301 9.82187 27.1658 9.89921 27.147 10.071C27.1254 10.2681 27.2549 10.3783 27.4419 10.3977C27.6216 10.4163 27.6872 10.2804 27.6991 10.1368ZM10.2999 4.60827C10.2675 4.38224 10.1051 4.25247 9.90444 4.16684C9.75575 4.19207 9.72223 4.30093 9.74314 4.41427C9.78065 4.6154 9.88204 4.78633 10.1034 4.81902C10.2403 4.83926 10.317 4.72709 10.2999 4.60827ZM24.8899 5.58437C25.0444 5.58255 25.1108 5.48613 25.1105 5.32848C25.0859 5.14046 24.9673 5.03027 24.7768 5.03293C24.6362 5.03508 24.5337 5.13963 24.5504 5.28202C24.572 5.46655 24.6905 5.58686 24.8899 5.58437ZM27.3199 5.63217C27.4502 5.64096 27.5582 5.56811 27.5567 5.3932C27.5214 5.23157 27.4356 5.09814 27.2404 5.08437C27.0844 5.07309 27.0056 5.18643 27.0053 5.31537C27.005 5.50671 27.1392 5.61989 27.3199 5.63217ZM19.9991 7.39869C20.0349 7.5741 20.0864 7.78867 20.2869 7.81572C20.4528 7.83804 20.4638 7.68553 20.4723 7.56728L20.473 7.55711C20.4738 7.54711 20.4745 7.5374 20.4754 7.52813C20.4765 7.31787 20.4037 7.18495 20.1893 7.18545C20.0537 7.18578 19.9727 7.26991 19.9991 7.39869ZM20.6378 20.3055C20.6655 20.4733 20.7125 20.651 20.9103 20.6855C21.0534 20.7105 21.0837 20.5817 21.1114 20.4641L21.1121 20.4608C21.0681 20.2927 20.9779 20.1538 20.7933 20.1195C20.6592 20.0946 20.6201 20.1985 20.6378 20.3055ZM7.62448 9.71185C7.76603 9.7082 7.79341 9.58872 7.79374 9.44716C7.774 9.30245 7.7111 9.15493 7.52507 9.15476C7.38634 9.15459 7.36078 9.28669 7.36294 9.40418C7.36609 9.57561 7.42799 9.71683 7.62448 9.71185ZM20.3592 10.151C20.4845 10.1712 20.5748 10.1249 20.604 9.98185C20.5862 9.85838 20.5399 9.74703 20.3931 9.72098C20.2656 9.69808 20.1631 9.74753 20.1566 9.88228C20.1503 10.013 20.2104 10.1269 20.3592 10.151Z" fill="#37B9C5"/>
<path d="M15.1774 12.1613C15.6998 12.6524 15.9387 13.3431 16.4776 13.8513C16.9322 13.2584 17.6337 13.0858 18.3933 13.059C18.919 13.0404 19.2408 13.2666 19.3179 13.8059C19.4221 14.5344 19.2446 15.2228 18.9463 15.8639C18.3884 17.0626 17.5801 18.0943 16.6589 19.0539C16.2761 19.4527 15.7656 19.5877 15.341 19.8859C15.2074 19.9797 15.0818 19.8306 15.0083 19.7066C14.659 19.1173 14.2706 18.5455 13.9774 17.93C13.6284 17.1972 13.1882 16.5077 12.9482 15.7203C12.632 14.6823 12.6108 13.6618 13.0045 12.6477C13.2259 12.0772 13.6475 11.7606 14.2922 11.7853C14.4828 12.1494 14.7805 12.2688 15.1774 12.1613Z" fill="#FF5A5A"/>
<path d="M14.2922 11.7853C14.4828 12.1494 14.7805 12.2688 15.1774 12.1613C14.9453 11.8922 14.5938 11.8964 14.2922 11.7853Z" fill="#FF5A5A"/>
</svg>
